<svg width="86" height="24" viewBox="0 0 86 24" fill="none" xmlns="http://www.w3.org/2000/svg">
<path d="M3 12C3 6.48084 7.48084 2 13 2C18.5192 2 23 6.48084 23 12C23 17.5192 18.5192 22 13 22C7.48084 22 3 17.5192 3 12Z" fill="url(#paint0_radial_3_12)"/>
<path d="M3 12C8.80832 14.8667 11.1083 13.1667 13 12C14.7083 10.8167 19.1583 9.86668 23 12C23 17.5192 18.5192 22 13 22C7.48084 22 3 17.5192 3 12Z" fill="#24B3DF"/>
<path d="M23 12C17.1917 14.8667 14.8917 13.1667 13 12C11.2917 10.8167 6.84168 9.86668 3 12C3 17.5192 7.48084 22 13 22C18.5192 22 23 17.5192 23 12Z" fill="#0D96BF"/>
<path d="M23 12C17.1917 14.8667 14.8917 13.1667 13 12C11.2917 10.8167 6.84168 9.86668 3 12C3 17.5192 7.48084 22 13 22C18.5192 22 23 17.5192 23 12Z" fill="#0D96BF"/>
<path d="M21.95 16.45C16.1417 19.3167 14.8917 16.7667 13 15.6C11.2917 14.4167 6.84168 9.86668 3 12C3 17.5192 7.48084 22 13 22C18.4083 21.8167 21.0583 17.9667 21.95 16.45Z" fill="#0689B0"/>
<path d="M32.3691 12.8418L34.0508 13.375C33.793 14.3125 33.3633 15.0098 32.7617 15.4668C32.1641 15.9199 31.4043 16.1465 30.4824 16.1465C29.3418 16.1465 28.4043 15.7578 27.6699 14.9805C26.9355 14.1992 26.5684 13.1328 26.5684 11.7812C26.5684 10.3516 26.9375 9.24219 27.6758 8.45312C28.4141 7.66016 29.3848 7.26367 30.5879 7.26367C31.6387 7.26367 32.4922 7.57422 33.1484 8.19531C33.5391 8.5625 33.832 9.08984 34.0273 9.77734L32.3105 10.1875C32.209 9.74219 31.9961 9.39062 31.6719 9.13281C31.3516 8.875 30.9609 8.74609 30.5 8.74609C29.8633 8.74609 29.3457 8.97461 28.9473 9.43164C28.5527 9.88867 28.3555 10.6289 28.3555 11.6523C28.3555 12.7383 28.5508 13.5117 28.9414 13.9727C29.332 14.4336 29.8398 14.6641 30.4648 14.6641C30.9258 14.6641 31.3223 14.5176 31.6543 14.2246C31.9863 13.9316 32.2246 13.4707 32.3691 12.8418ZM36.7637 11.6758L35.2695 11.4062C35.4375 10.8047 35.7266 10.3594 36.1367 10.0703C36.5469 9.78125 37.1562 9.63672 37.9648 9.63672C38.6992 9.63672 39.2461 9.72461 39.6055 9.90039C39.9648 10.0723 40.2168 10.293 40.3613 10.5625C40.5098 10.8281 40.584 11.3184 40.584 12.0332L40.5664 13.9551C40.5664 14.502 40.5918 14.9062 40.6426 15.168C40.6973 15.4258 40.7969 15.7031 40.9414 16H39.3125C39.2695 15.8906 39.2168 15.7285 39.1543 15.5137C39.127 15.416 39.1074 15.3516 39.0957 15.3203C38.8145 15.5938 38.5137 15.7988 38.1934 15.9355C37.873 16.0723 37.5312 16.1406 37.168 16.1406C36.5273 16.1406 36.0215 15.9668 35.6504 15.6191C35.2832 15.2715 35.0996 14.832 35.0996 14.3008C35.0996 13.9492 35.1836 13.6367 35.3516 13.3633C35.5195 13.0859 35.7539 12.875 36.0547 12.7305C36.3594 12.582 36.7969 12.4531 37.3672 12.3438C38.1367 12.1992 38.6699 12.0645 38.9668 11.9395V11.7754C38.9668 11.459 38.8887 11.2344 38.7324 11.1016C38.5762 10.9648 38.2812 10.8965 37.8477 10.8965C37.5547 10.8965 37.3262 10.9551 37.1621 11.0723C36.998 11.1855 36.8652 11.3867 36.7637 11.6758ZM38.9668 13.0117C38.7559 13.082 38.4219 13.166 37.9648 13.2637C37.5078 13.3613 37.209 13.457 37.0684 13.5508C36.8535 13.7031 36.7461 13.8965 36.7461 14.1309C36.7461 14.3613 36.832 14.5605 37.0039 14.7285C37.1758 14.8965 37.3945 14.9805 37.6602 14.9805C37.957 14.9805 38.2402 14.8828 38.5098 14.6875C38.709 14.5391 38.8398 14.3574 38.9023 14.1426C38.9453 14.002 38.9668 13.7344 38.9668 13.3398V13.0117ZM41.6328 14.2246L43.2852 13.9727C43.3555 14.293 43.498 14.5371 43.7129 14.7051C43.9277 14.8691 44.2285 14.9512 44.6152 14.9512C45.041 14.9512 45.3613 14.873 45.5762 14.7168C45.7207 14.6074 45.793 14.4609 45.793 14.2773C45.793 14.1523 45.7539 14.0488 45.6758 13.9668C45.5938 13.8887 45.4102 13.8164 45.125 13.75C43.7969 13.457 42.9551 13.1895 42.5996 12.9473C42.1074 12.6113 41.8613 12.1445 41.8613 11.5469C41.8613 11.0078 42.0742 10.5547 42.5 10.1875C42.9258 9.82031 43.5859 9.63672 44.4805 9.63672C45.332 9.63672 45.9648 9.77539 46.3789 10.0527C46.793 10.3301 47.0781 10.7402 47.2344 11.2832L45.6816 11.5703C45.6152 11.3281 45.4883 11.1426 45.3008 11.0137C45.1172 10.8848 44.8535 10.8203 44.5098 10.8203C44.0762 10.8203 43.7656 10.8809 43.5781 11.002C43.4531 11.0879 43.3906 11.1992 43.3906 11.3359C43.3906 11.4531 43.4453 11.5527 43.5547 11.6348C43.7031 11.7441 44.2148 11.8984 45.0898 12.0977C45.9688 12.2969 46.582 12.541 46.9297 12.8301C47.2734 13.123 47.4453 13.5312 47.4453 14.0547C47.4453 14.625 47.207 15.1152 46.7305 15.5254C46.2539 15.9355 45.5488 16.1406 44.6152 16.1406C43.7676 16.1406 43.0957 15.9688 42.5996 15.625C42.1074 15.2812 41.7852 14.8145 41.6328 14.2246ZM50.5332 7.41016V10.5684C51.0645 9.94727 51.6992 9.63672 52.4375 9.63672C52.8164 9.63672 53.1582 9.70703 53.4629 9.84766C53.7676 9.98828 53.9961 10.168 54.1484 10.3867C54.3047 10.6055 54.4102 10.8477 54.4648 11.1133C54.5234 11.3789 54.5527 11.791 54.5527 12.3496V16H52.9062V12.7129C52.9062 12.0605 52.875 11.6465 52.8125 11.4707C52.75 11.2949 52.6387 11.1562 52.4785 11.0547C52.3223 10.9492 52.125 10.8965 51.8867 10.8965C51.6133 10.8965 51.3691 10.9629 51.1543 11.0957C50.9395 11.2285 50.7812 11.4297 50.6797 11.6992C50.582 11.9648 50.5332 12.3594 50.5332 12.8828V16H48.8867V7.41016H50.5332Z" fill="#04B500"/>
<path d="M56.252 16V7.41016H62.1406V8.86328H57.9863V10.8965H61.5723V12.3496H57.9863V16H56.252ZM63.5645 16V7.41016H65.2109V16H63.5645ZM66.5234 12.8008C66.5234 12.2539 66.6582 11.7246 66.9277 11.2129C67.1973 10.7012 67.5781 10.3105 68.0703 10.041C68.5664 9.77148 69.1191 9.63672 69.7285 9.63672C70.6699 9.63672 71.4414 9.94336 72.043 10.5566C72.6445 11.166 72.9453 11.9375 72.9453 12.8711C72.9453 13.8125 72.6406 14.5938 72.0312 15.2148C71.4258 15.832 70.6621 16.1406 69.7402 16.1406C69.1699 16.1406 68.625 16.0117 68.1055 15.7539C67.5898 15.4961 67.1973 15.1191 66.9277 14.623C66.6582 14.123 66.5234 13.5156 66.5234 12.8008ZM68.2109 12.8887C68.2109 13.5059 68.3574 13.9785 68.6504 14.3066C68.9434 14.6348 69.3047 14.7988 69.7344 14.7988C70.1641 14.7988 70.5234 14.6348 70.8125 14.3066C71.1055 13.9785 71.252 13.502 71.252 12.877C71.252 12.2676 71.1055 11.7988 70.8125 11.4707C70.5234 11.1426 70.1641 10.9785 69.7344 10.9785C69.3047 10.9785 68.9434 11.1426 68.6504 11.4707C68.3574 11.7988 68.2109 12.2715 68.2109 12.8887ZM75.4004 16L73.4316 9.77734H75.0312L76.1973 13.8555L77.2695 9.77734H78.8574L79.8945 13.8555L81.084 9.77734H82.707L80.709 16H79.127L78.0547 11.998L77 16H75.4004Z" fill="#0689B0"/>
<defs>
<radialGradient id="paint0_radial_3_12" cx="0" cy="0" r="1" gradientUnits="userSpaceOnUse" gradientTransform="translate(13 12) rotate(-0.690831) scale(11.0592 9.99925)">
<stop offset="0.0166667" stop-color="#CBF3FF"/>
<stop offset="1" stop-color="#5FDAFF"/>
</radialGradient>
</defs>
</svg>
