<svg width="63" height="19" viewBox="0 0 63 19" fill="none" xmlns="http://www.w3.org/2000/svg">
<path d="M14.8605 6.88704C14.7217 6.50661 14.4911 6.23232 14.1936 6.09417L14.1896 6.09244C14.0542 6.03125 13.91 5.99994 13.7645 6.00014H13.7485C13.0675 6.01197 12.3721 6.67966 12.0186 7.66173C11.7593 8.3799 11.7295 9.15229 11.939 9.72797C12.0776 10.1087 12.3086 10.383 12.6074 10.5211L12.6106 10.5226C12.7461 10.5837 12.8903 10.615 13.0357 10.6149C13.7233 10.6149 14.4259 9.94717 14.7859 8.95212C15.042 8.23482 15.0702 7.46301 14.8605 6.88704ZM12.1391 11.1228C11.7463 10.8505 11.375 10.5929 11.1324 10.1303C10.4633 8.84973 10.0593 8.07677 8.99989 8.07677C7.9405 8.07677 7.53544 8.84973 6.86485 10.1303C6.62181 10.5935 6.24976 10.8514 5.85571 11.1248C5.40389 11.438 4.93708 11.7616 4.73555 12.3985C4.65721 12.628 4.61774 12.8728 4.61929 13.1195C4.61929 14.1564 5.31938 15 6.1795 15C6.62331 15 7.09563 14.8226 7.59545 14.6349C8.07601 14.4543 8.57283 14.2677 9.00239 14.2677C9.43195 14.2677 9.92752 14.4543 10.4063 14.6349C10.9052 14.8215 11.3752 14.9988 11.8203 14.9988C12.6791 14.9988 13.378 14.1552 13.378 13.1183C13.3787 12.8715 13.3384 12.6267 13.2592 12.3973C13.0577 11.7599 12.5906 11.436 12.1391 11.1228ZM6.34953 7.06297C6.64707 7.49358 7.02462 7.73066 7.41267 7.73066C7.46565 7.73066 7.51855 7.72613 7.57094 7.71711C8.38031 7.57982 8.88463 6.44056 8.7191 5.12133C8.64984 4.5667 8.46482 4.05014 8.19978 3.66712C7.90274 3.23737 7.52469 3.00058 7.13688 3.00058C7.08391 3.00058 7.03101 3.00511 6.97861 3.01413C6.16925 3.15142 5.66493 4.29068 5.83045 5.60991C5.89946 6.16368 6.08449 6.67966 6.34953 7.06297ZM10.4291 7.71711C10.4815 7.72613 10.5344 7.73066 10.5874 7.73066C10.9757 7.73066 11.353 7.49358 11.6505 7.06297C11.9153 6.67966 12.0993 6.16368 12.1693 5.60934C12.3349 4.29068 11.8305 3.15142 11.0212 3.01356C10.9688 3.00453 10.9159 3 10.8629 3C10.4751 3.00058 10.097 3.23737 9.8 3.66712C9.53497 4.05014 9.34994 4.5667 9.28093 5.12191C9.11541 6.44056 9.61973 7.57982 10.4291 7.71711V7.71711ZM5.38914 10.5226L5.39264 10.5211C5.69093 10.383 5.92172 10.109 6.05999 9.72855C6.26951 9.15171 6.24001 8.38019 5.98122 7.66202C5.62293 6.66812 4.92058 6.00014 4.23373 6.00014C4.08828 5.9999 3.94409 6.03121 3.80867 6.09244L3.80517 6.09388C3.50763 6.23088 3.27685 6.50603 3.13858 6.88646C2.92905 7.4633 2.95856 8.23482 3.21734 8.95299C3.57564 9.94688 4.27799 10.6149 4.96483 10.6149C5.11003 10.615 5.25396 10.5837 5.38914 10.5226V10.5226Z" fill="#F5F5F5"/>
<path d="M18.336 5.628C19.2 5.772 20.236 5.844 21.444 5.844C22.652 5.844 23.916 5.7 25.236 5.412C25.1 6.428 24.584 6.984 23.688 7.08C23.408 7.12 22.976 7.16 22.392 7.2C22.376 7.432 22.244 8.448 21.996 10.248C21.748 12.04 21.624 13.276 21.624 13.956C21.624 14.636 21.68 15.108 21.792 15.372C21.112 15.196 20.648 14.964 20.4 14.676C20.152 14.38 20.028 14.016 20.028 13.584C20.028 13.152 20.128 12.216 20.328 10.776C20.536 9.328 20.66 8.164 20.7 7.284C20.052 7.316 19.416 7.332 18.792 7.332C18.424 7.332 18.24 7.004 18.24 6.348C18.256 6.036 18.288 5.796 18.336 5.628ZM27.0116 11.292C27.2756 10.388 27.6876 9.628 28.2476 9.012C28.8076 8.388 29.3276 8.076 29.8076 8.076C30.2956 8.076 30.6396 8.224 30.8396 8.52C31.0476 8.808 31.1516 9.204 31.1516 9.708C31.1516 10.204 31.0716 10.904 30.9116 11.808C30.7596 12.712 30.6836 13.372 30.6836 13.788C30.6836 14.196 30.7356 14.496 30.8396 14.688C30.9436 14.872 31.1196 15.032 31.3676 15.168C31.2636 15.176 31.1156 15.18 30.9236 15.18C30.2516 15.18 29.7716 15.076 29.4836 14.868C29.2036 14.66 29.0636 14.296 29.0636 13.776C29.0636 13.48 29.1436 12.904 29.3036 12.048C29.4636 11.184 29.5436 10.54 29.5436 10.116C29.5436 9.588 29.3836 9.324 29.0636 9.324C28.8716 9.324 28.6596 9.432 28.4276 9.648C28.1956 9.864 27.9716 10.16 27.7556 10.536C27.5476 10.904 27.3716 11.38 27.2276 11.964C27.0836 12.548 27.0116 13.132 27.0116 13.716C27.0116 14.292 27.0356 14.72 27.0836 15C26.8276 15.016 26.6596 15.024 26.5796 15.024C26.1236 15.024 25.7956 14.948 25.5956 14.796C25.3956 14.636 25.2956 14.384 25.2956 14.04C25.2956 13.696 25.3636 13.04 25.4996 12.072C25.9316 9.096 26.1476 6.836 26.1476 5.292C26.1476 4.596 26.0996 4.128 26.0036 3.888C26.6036 4.048 27.0116 4.292 27.2276 4.62C27.4516 4.94 27.5636 5.396 27.5636 5.988C27.5636 6.388 27.4836 7.228 27.3236 8.508C27.1716 9.788 27.0676 10.716 27.0116 11.292ZM35.4608 12.048C35.0768 12.048 34.7008 12.004 34.3328 11.916C34.3248 11.996 34.3208 12.12 34.3208 12.288C34.3208 12.952 34.4448 13.452 34.6928 13.788C34.9408 14.124 35.2368 14.292 35.5808 14.292C35.9248 14.292 36.2528 14.188 36.5648 13.98C36.8768 13.772 37.1488 13.484 37.3808 13.116C37.6688 13.18 37.8128 13.328 37.8128 13.56C37.1088 14.64 36.2008 15.18 35.0888 15.18C34.4168 15.18 33.8288 14.924 33.3248 14.412C32.8208 13.892 32.5688 13.172 32.5688 12.252C32.5688 11.564 32.7008 10.912 32.9648 10.296C33.2288 9.672 33.6488 9.148 34.2248 8.724C34.8008 8.292 35.4368 8.076 36.1328 8.076C36.8368 8.076 37.3528 8.236 37.6808 8.556C38.0088 8.876 38.1728 9.296 38.1728 9.816C38.1728 10.568 37.9088 11.128 37.3808 11.496C36.8608 11.864 36.2208 12.048 35.4608 12.048ZM35.9648 8.82C35.5568 8.82 35.2128 9.072 34.9328 9.576C34.6528 10.08 34.4688 10.692 34.3808 11.412H34.5608C35.2568 11.412 35.7688 11.232 36.0968 10.872C36.4328 10.512 36.6008 10.08 36.6008 9.576C36.6008 9.368 36.5448 9.192 36.4328 9.048C36.3288 8.896 36.1728 8.82 35.9648 8.82ZM44.9605 12.288C44.9605 13.624 45.3525 14.292 46.1365 14.292C46.4405 14.292 46.7485 14.188 47.0605 13.98C47.3725 13.772 47.6445 13.484 47.8765 13.116C48.1645 13.18 48.3085 13.328 48.3085 13.56C47.9725 14.144 47.5605 14.56 47.0725 14.808C46.5845 15.056 46.0965 15.18 45.6085 15.18C44.9525 15.18 44.3925 14.94 43.9285 14.46C43.4725 13.972 43.2445 13.268 43.2445 12.348C43.2445 11.172 43.5685 10.168 44.2165 9.336C44.8645 8.496 45.7405 8.076 46.8445 8.076C47.4605 8.076 47.9245 8.228 48.2365 8.532C48.5485 8.828 48.7045 9.184 48.7045 9.6C48.7045 10.008 48.5765 10.364 48.3205 10.668C48.0725 10.972 47.7525 11.124 47.3605 11.124C47.1685 11.124 46.9765 11.084 46.7845 11.004C46.9045 10.868 47.0165 10.656 47.1205 10.368C47.2245 10.072 47.2765 9.8 47.2765 9.552C47.2765 9.064 47.0645 8.82 46.6405 8.82C46.1445 8.82 45.7405 9.184 45.4285 9.912C45.1165 10.64 44.9605 11.432 44.9605 12.288ZM51.4156 12.732C51.4156 13.108 51.4836 13.416 51.6196 13.656C51.7636 13.888 51.9636 14.004 52.2196 14.004C52.5956 14.004 52.9516 13.784 53.2876 13.344C53.6316 12.904 53.9036 12.34 54.1036 11.652C54.3116 10.964 54.4156 10.312 54.4156 9.696C54.4156 9.072 54.3916 8.568 54.3436 8.184C54.5836 8.168 54.7516 8.16 54.8476 8.16C55.2556 8.16 55.5636 8.236 55.7716 8.388C55.9796 8.54 56.0836 8.812 56.0836 9.204C56.0836 9.356 55.9876 9.976 55.7956 11.064C55.6036 12.144 55.5076 13.012 55.5076 13.668C55.5076 14.316 55.6316 14.892 55.8796 15.396C55.2796 15.292 54.8396 15.072 54.5596 14.736C54.2796 14.392 54.1396 13.9 54.1396 13.26C54.1396 13.148 54.1556 12.932 54.1876 12.612C53.9716 13.372 53.5876 13.984 53.0356 14.448C52.4836 14.912 51.9396 15.144 51.4036 15.144C50.8756 15.144 50.4476 14.948 50.1196 14.556C49.7996 14.156 49.6396 13.592 49.6396 12.864C49.6396 12.136 49.7676 11.432 50.0236 10.752C50.2876 10.064 50.6796 9.484 51.1996 9.012C51.7196 8.532 52.2996 8.292 52.9396 8.292C53.3076 8.292 53.6836 8.38 54.0676 8.556C53.2596 8.844 52.6156 9.412 52.1356 10.26C51.6556 11.1 51.4156 11.924 51.4156 12.732ZM59.8608 10.86C59.7328 11.572 59.6328 12.204 59.5608 12.756C59.4888 13.308 59.4528 13.872 59.4528 14.448C59.4528 15.024 59.5088 15.436 59.6208 15.684C59.0048 15.524 58.5808 15.28 58.3488 14.952C58.1168 14.616 58.0008 14.144 58.0008 13.536C58.0008 13 58.0848 12.268 58.2528 11.34C58.4208 10.404 58.5288 9.772 58.5768 9.444C58.1608 9.516 57.7168 9.656 57.2448 9.864C57.2288 9.688 57.2208 9.556 57.2208 9.468C57.2208 9.044 57.3488 8.756 57.6048 8.604C57.8608 8.444 58.2288 8.36 58.7088 8.352C58.7648 7.752 58.7928 7.32 58.7928 7.056C58.7928 6.792 58.7888 6.572 58.7808 6.396C58.7808 6.22 58.7808 6.088 58.7808 6C59.3088 6.056 59.6928 6.216 59.9328 6.48C60.1728 6.736 60.2928 7.104 60.2928 7.584C60.2928 7.776 60.2728 8.044 60.2328 8.388C60.9048 8.372 61.3968 8.24 61.7088 7.992C61.7248 8.152 61.7328 8.272 61.7328 8.352C61.7328 8.736 61.6648 9.004 61.5288 9.156C61.3928 9.3 61.1648 9.372 60.8448 9.372C60.5248 9.372 60.2808 9.368 60.1128 9.36C60.0728 9.648 59.9888 10.148 59.8608 10.86Z" fill="#F5F5F5"/>
</svg>
